<?xml version="1.0" standalone="no"?>
<!DOCTYPE svg PUBLIC "-//W3C//DTD SVG 20010904//EN"
 "http://www.w3.org/TR/2001/REC-SVG-20010904/DTD/svg10.dtd">
<svg version="1.0" xmlns="http://www.w3.org/2000/svg"
 width="150.000000pt" height="150.000000pt" viewBox="0 0 150.000000 150.000000"
 preserveAspectRatio="xMidYMid meet">
<metadata>
Created by potrace 1.11, written by Peter Selinger 2001-2013
</metadata>
<g transform="translate(0.000000,150.000000) scale(0.100000,-0.100000)"
fill="#000000" stroke="none">
<path d="M945 1251 c-6 -20 -93 -105 -133 -131 -19 -12 -25 -27 -29 -78 -3
-34 -9 -62 -12 -62 -31 0 -159 45 -171 60 -8 10 -28 22 -44 26 -26 6 -28 5
-21 -15 4 -14 2 -23 -9 -27 -26 -10 -18 -21 20 -28 21 -4 41 -3 48 3 9 7 23 8
42 2 16 -5 54 -17 85 -25 l56 -16 6 -97 c3 -56 18 -146 35 -209 l28 -112 -65
-51 c-36 -29 -71 -49 -79 -46 -8 3 -27 -6 -44 -20 -26 -22 -27 -25 -9 -25 16
0 21 -6 21 -25 l0 -26 30 23 c17 12 30 30 30 39 0 10 24 38 54 63 52 45 76 56
76 36 0 -14 65 -187 96 -259 24 -53 25 -54 44 -36 67 61 225 367 283 550 59
183 82 348 57 396 -9 16 -22 19 -84 19 -81 0 -154 19 -238 61 -68 34 -65 34
-73 10z"/>
<path d="M140 860 c8 -16 8 -25 0 -35 -9 -10 -5 -15 20 -20 19 -4 36 -2 45 5
12 10 49 7 172 -9 87 -12 168 -26 180 -31 13 -6 32 -6 45 -1 l23 9 -25 5 c-14
4 -99 16 -190 28 -113 14 -173 27 -190 39 -14 10 -41 21 -59 25 -31 7 -32 6
-21 -15z"/>
<path d="M365 608 c-108 -16 -143 -18 -158 -8 -11 6 -31 8 -48 5 -24 -5 -28
-10 -19 -20 8 -10 8 -19 0 -35 -11 -21 -10 -22 22 -15 18 4 41 14 50 22 16 14
282 58 297 49 3 -2 17 2 31 10 l25 13 -30 0 c-16 -1 -93 -10 -170 -21z"/>
<path d="M639 216 c12 -14 11 -19 -3 -35 -16 -18 -15 -19 18 -23 19 -2 41 1
50 7 11 9 58 5 188 -17 95 -15 182 -28 193 -28 18 1 17 2 -5 14 -14 8 -28 12
-32 10 -15 -9 -323 48 -334 62 -7 8 -29 18 -50 21 -36 6 -38 5 -25 -11z"/>
</g>
</svg>
